<svg width="40" height="40" viewBox="0 0 40 40" fill="none" xmlns="http://www.w3.org/2000/svg">
<path d="M25.9106 17.7852C24.9342 17.7852 24.0161 17.4049 23.3255 16.7143C21.9002 15.2885 21.9002 12.9696 23.3255 11.5438C24.7517 10.1184 27.0711 10.1193 28.4956 11.5438C29.1862 12.2339 29.5669 13.152 29.5669 14.1288C29.5669 15.1056 29.1866 16.0237 28.4956 16.7143C27.8055 17.4049 26.8873 17.7852 25.9106 17.7852ZM24.5635 12.7823C23.8209 13.5253 23.8209 14.7341 24.5635 15.4767C24.9233 15.8364 25.402 16.0347 25.911 16.0347C26.42 16.0347 26.8983 15.8364 27.2584 15.4767C27.6182 15.117 27.8169 14.6382 27.8169 14.1293C27.8169 13.6203 27.6186 13.142 27.2584 12.7823C26.5154 12.0396 25.3066 12.0396 24.5635 12.7823Z" fill="#837E9F"/>
<path d="M39.6909 3.44158C39.6914 3.40526 39.6914 3.36937 39.6914 3.33305C39.6914 3.14619 39.6901 2.95932 39.6861 2.7707C39.6835 2.65386 39.6791 2.53701 39.6747 2.41973C39.6699 2.28888 39.666 2.15847 39.659 2.02718C39.6454 1.76373 39.6284 1.49897 39.606 1.23333C39.5706 0.807518 39.2323 0.469672 38.8065 0.433787C38.5409 0.411468 38.277 0.394838 38.014 0.380834C37.8805 0.373832 37.7483 0.369893 37.6161 0.365079C37.5015 0.361141 37.3864 0.356327 37.2717 0.354139C37.0805 0.349763 36.8906 0.34845 36.7011 0.34845C36.6696 0.34845 36.6376 0.34845 36.6061 0.348887C32.8303 0.367268 29.3643 1.29416 25.865 3.20527C25.8033 3.23896 25.7416 3.27091 25.6799 3.30461C25.658 3.31686 25.6366 3.32736 25.6147 3.33962C25.6099 3.34224 25.606 3.34662 25.6012 3.34924C22.7321 4.94833 19.8678 7.20516 16.9034 10.1696C16.5664 10.5066 16.2369 10.8479 15.9108 11.191L10.1499 11.6291C9.98145 11.6418 9.8204 11.7031 9.68605 11.805L0.650408 18.6814C0.362889 18.9002 0.239041 19.2731 0.339257 19.6201C0.439036 19.9672 0.741872 20.2171 1.1016 20.2499L9.57971 21.0153L12.2641 23.6997C11.3127 23.9172 10.3434 24.4502 9.51319 25.2799C9.01605 25.7775 8.61693 26.3351 8.3246 26.9442C7.94255 27.7534 7.10363 29.8369 6.21525 32.043L5.78156 33.1191C5.65027 33.4447 5.72598 33.8171 5.97455 34.0653C6.14173 34.2329 6.36579 34.3217 6.59379 34.3217C6.70364 34.3217 6.81479 34.3007 6.92114 34.2578L8.03577 33.8084C10.2239 32.927 12.2908 32.0942 13.1017 31.7122C13.7056 31.4216 14.2636 31.0225 14.7603 30.5258C15.59 29.696 16.1226 28.7267 16.3401 27.7753L18.9449 30.38L19.7103 38.8577C19.7427 39.2174 19.993 39.5203 20.34 39.62C20.4201 39.6432 20.5015 39.6542 20.582 39.6542C20.8507 39.6542 21.1103 39.5303 21.2787 39.3089L28.1543 30.2737C28.2562 30.1393 28.3175 29.9783 28.3302 29.8098L28.7551 24.2191C29.1302 23.8642 29.5021 23.5036 29.8698 23.136C32.8364 20.1694 35.0946 17.3038 36.6941 14.433C36.6958 14.4299 36.6985 14.4273 36.7002 14.4242C36.7081 14.4102 36.7146 14.3966 36.7225 14.3826C36.7956 14.2509 36.8652 14.1192 36.9352 13.987C38.7767 10.5543 39.6712 7.14608 39.6909 3.44158ZM37.9124 2.12783C38.1059 5.82795 37.4 9.18016 35.7182 12.5416L27.4991 4.32252C30.8597 2.64029 34.2101 1.93396 37.9124 2.12783ZM10.5403 13.3555L14.2037 13.0772C13.5844 13.7919 12.991 14.5135 12.4269 15.24C12.4238 15.2439 12.4199 15.2465 12.4168 15.2505C12.37 15.3108 12.3267 15.3712 12.2803 15.4316C12.0435 15.7397 11.8098 16.0478 11.584 16.3568C11.521 16.4425 11.4624 16.5279 11.4002 16.6137C11.1867 16.9104 10.9744 17.2066 10.7714 17.5033C10.6681 17.6539 10.5722 17.8031 10.4725 17.9528C10.318 18.1847 10.1609 18.4162 10.0134 18.6477C9.88211 18.8534 9.76045 19.0569 9.63529 19.2617L3.50504 18.709L10.5403 13.3555ZM22.6743 27.0234C22.3737 27.2436 22.0743 27.4571 21.7754 27.6646C21.5956 27.7893 21.4157 27.9136 21.2358 28.0344C21.1076 28.1206 20.9798 28.2055 20.8521 28.2891C20.5418 28.4921 20.2319 28.6925 19.9225 28.8825L15.541 24.5005C15.5406 24.5001 15.5406 24.5001 15.5402 24.4997C15.5397 24.4992 15.5397 24.4992 15.5393 24.4988L11.1578 20.1173C11.1687 20.0998 11.1805 20.0818 11.1915 20.0639C11.3696 19.7755 11.5556 19.4867 11.7451 19.1974C11.833 19.0635 11.9223 18.9291 12.0129 18.7943C12.128 18.6228 12.247 18.4508 12.3661 18.2793C12.5788 17.9729 12.7976 17.6661 13.0229 17.3581C13.082 17.2775 13.1402 17.1966 13.2002 17.116L22.9242 26.8405C22.8411 26.9022 22.7575 26.9622 22.6743 27.0234ZM13.5227 29.2886C13.1656 29.6457 12.7691 29.9301 12.3486 30.1319C11.6869 30.4444 9.97445 31.1402 8.17406 31.8658C8.90051 30.0632 9.59502 28.3543 9.90486 27.6969C10.1097 27.2711 10.3946 26.8746 10.7517 26.5171C11.5079 25.7605 12.4523 25.3434 13.2291 25.3434C13.6571 25.3434 14.0343 25.4703 14.3008 25.7359L14.3034 25.7386C15.0526 26.4909 14.6955 28.1158 13.5227 29.2886ZM26.6046 29.4199L21.2507 36.4547L20.7089 30.4474C20.937 30.3083 21.1645 30.1722 21.3943 30.0251C21.6122 29.8859 21.8306 29.738 22.0485 29.5927C22.2126 29.4833 22.3759 29.3783 22.5404 29.2654C22.8257 29.0702 23.1106 28.8658 23.396 28.6606C23.4936 28.5901 23.5911 28.5227 23.6892 28.451C23.9889 28.2322 24.2874 28.005 24.5863 27.7762C24.6541 27.7241 24.722 27.6755 24.7898 27.623C24.7942 27.6195 24.7972 27.6151 24.8016 27.6116C25.4966 27.0725 26.1867 26.5057 26.8711 25.9158L26.6046 29.4199ZM28.6321 21.8989C27.2401 23.2909 25.792 24.5889 24.3242 25.7648L14.2754 15.7156C15.4513 14.2479 16.7493 12.7998 18.1414 11.4077C20.9562 8.59287 23.5268 6.59598 25.8904 5.18946L34.8504 14.1494C33.4443 16.5134 31.4474 19.084 28.6321 21.8989Z" fill="#837E9F"/>
</svg>
